<?xml version="1.0" encoding="UTF-8"?>
<svg xmlns="http://www.w3.org/2000/svg" xmlns:xlink="http://www.w3.org/1999/xlink" width="50px" height="50px" viewBox="0 0 50 50" version="1.1">
<g id="surface1">
<path style=" stroke:none;fill-rule:nonzero;fill:rgb(16.078431%,48.235294%,74.901961%);fill-opacity:1;" d="M 25.015625 0 C 37.285156 3.421875 43.003906 7.683594 49.570312 17.839844 C 50.101562 30.5625 47.832031 37.320312 40.195312 46.695312 C 28.253906 51.140625 21.121094 51.0625 9.847656 46.695312 C 1.933594 36.71875 -0.195312 29.914062 0.46875 17.839844 C 7.511719 7.230469 13.332031 3.097656 25.015625 0 Z M 25.015625 0 "/>
<path style="fill:none;stroke-width:0.16018;stroke-linecap:butt;stroke-linejoin:miter;stroke:rgb(0%,0%,0%);stroke-opacity:1;stroke-miterlimit:4;" d="M 63.21875 162.21875 L 58.875 168.53125 L 50.28125 181.46875 L 44.625 198 L 41.5625 205.03125 L 42.125 216.65625 L 46.875 224.625 L 48.59375 233.90625 L 50.875 240.4375 L 56.03125 249.9375 L 55.625 254.84375 L 56.75 260.03125 L 60.78125 267.25 L 64.5625 272.03125 L 65.6875 277.6875 " transform="matrix(0.125,0,0,0.125,0,0)"/>
<path style=" stroke:none;fill-rule:nonzero;fill:rgb(0%,0%,0%);fill-opacity:1;" d="M 25.015625 44.203125 C 25.761719 44.152344 26.34375 43.902344 27.039062 43.644531 C 28.085938 43.246094 28.972656 42.820312 30.835938 43.289062 C 31.339844 43.414062 31.941406 43.644531 32.519531 43.894531 C 33.726562 44.40625 35.117188 44.894531 36.671875 44.761719 L 36.804688 44.210938 C 36.140625 43.6875 35.890625 42.945312 35.6875 42.011719 C 35.632812 41.765625 35.582031 41.523438 35.519531 41.265625 L 35.464844 41.074219 L 35.269531 41.054688 C 34.125 40.964844 33.308594 40.683594 32.289062 40.316406 C 31.855469 40.160156 31.382812 39.988281 30.835938 39.820312 C 29.335938 39.359375 27.96875 39.707031 26.699219 40.027344 C 26.027344 40.195312 25.664062 40.355469 25.066406 40.378906 L 24.988281 40.378906 C 24.386719 40.363281 24.023438 40.203125 23.355469 40.027344 C 22.085938 39.707031 20.710938 39.359375 19.222656 39.820312 C 18.671875 39.988281 18.203125 40.160156 17.765625 40.316406 C 16.746094 40.683594 15.929688 40.964844 14.785156 41.054688 L 14.589844 41.074219 L 14.539062 41.265625 C 14.46875 41.523438 14.421875 41.765625 14.359375 42.011719 C 14.15625 42.945312 13.945312 43.742188 13.277344 44.265625 L 13.386719 44.683594 C 14.9375 44.816406 16.25 44.390625 17.457031 43.867188 C 18.035156 43.617188 18.601562 43.386719 19.117188 43.261719 C 20.980469 42.792969 21.953125 43.253906 23.011719 43.652344 C 23.703125 43.910156 24.296875 44.160156 25.042969 44.210938 Z M 25.015625 40.050781 C 23.996094 39.777344 22.964844 39.289062 22.0625 38.625 C 21.875 38.480469 21.6875 38.339844 21.511719 38.179688 C 21.441406 38.117188 21.378906 38.054688 21.308594 37.992188 C 20.136719 38.472656 18.441406 39.015625 16.710938 39.324219 C 15.265625 39.582031 13.792969 39.671875 12.550781 39.414062 C 11.265625 39.15625 10.234375 38.527344 9.757812 37.335938 C 9.675781 37.132812 9.605469 36.910156 9.5625 36.679688 C 8.566406 36.023438 8.082031 35.226562 7.921875 34.585938 C 7.886719 34.453125 7.867188 34.320312 7.859375 34.207031 C 7.851562 34.136719 7.851562 34.074219 7.859375 34.003906 C 7.175781 33.328125 6.765625 32.628906 6.707031 31.96875 C 6.695312 31.828125 6.695312 31.695312 6.722656 31.554688 C 6.742188 31.472656 6.75 31.394531 6.777344 31.324219 L 6.785156 31.324219 C 6.4375 30.914062 6.171875 30.507812 5.988281 30.027344 C 5.792969 29.53125 5.703125 28.972656 5.730469 28.289062 C 4.515625 27.171875 4.664062 25.425781 5.410156 23.953125 C 6.28125 22.222656 7.441406 20.582031 7.949219 19.125 C 8.230469 18.316406 8.453125 18.824219 8.453125 19.074219 C 8.453125 20.277344 8.257812 21.574219 8.007812 22.734375 C 7.984375 22.859375 7.957031 22.984375 7.875 23.382812 C 7.753906 23.976562 7.753906 24.535156 7.921875 24.945312 C 7.992188 25.113281 8.089844 25.246094 8.214844 25.363281 C 8.335938 25.46875 8.507812 25.546875 8.710938 25.59375 C 9.179688 25.691406 9.847656 25.582031 10.742188 25.210938 C 12.933594 24.289062 15.054688 23.480469 16.5625 23.375 C 18.246094 23.257812 19.230469 23.933594 18.902344 26.082031 C 18.859375 26.375 18.804688 26.675781 18.761719 26.949219 C 18.636719 27.667969 18.574219 28.078125 18.617188 28.457031 C 18.65625 28.75 18.734375 29.078125 18.9375 29.414062 C 19.105469 29.699219 19.375 29.984375 19.78125 30.265625 C 19.800781 30.214844 19.824219 30.152344 19.84375 30.097656 C 19.726562 28.875 19.84375 27.660156 20.359375 26.515625 C 20.457031 26.3125 20.554688 26.105469 20.675781 25.910156 L 18.316406 14.425781 C 18.15625 13.632812 17.972656 13.136719 17.660156 12.90625 C 17.246094 12.597656 16.5625 12.683594 16.082031 12.765625 C 15.675781 12.835938 15.675781 12.597656 15.964844 12.429688 C 16.410156 12.179688 16.941406 11.824219 17.421875 11.503906 C 18.289062 10.929688 19.160156 10.414062 20.128906 11.152344 C 20.25 10.324219 20.898438 9.890625 21.519531 9.464844 C 21.699219 9.332031 22.140625 9.082031 22.371094 8.738281 C 22.59375 8.417969 22.851562 8.304688 22.894531 8.675781 C 22.902344 8.773438 22.9375 8.976562 22.976562 9.191406 C 23.417969 8.710938 24.082031 8.4375 24.519531 7.976562 C 24.765625 7.707031 24.777344 7.460938 25.007812 7.453125 C 25.238281 7.460938 25.246094 7.707031 25.496094 7.976562 C 25.929688 8.4375 26.59375 8.710938 27.039062 9.191406 C 27.074219 8.976562 27.109375 8.773438 27.117188 8.675781 C 27.160156 8.304688 27.417969 8.410156 27.640625 8.738281 C 27.878906 9.074219 28.316406 9.332031 28.492188 9.464844 C 29.105469 9.890625 29.753906 10.324219 29.875 11.152344 C 30.84375 10.414062 31.722656 10.929688 32.582031 11.503906 C 33.0625 11.824219 33.601562 12.179688 34.035156 12.429688 C 34.320312 12.585938 34.320312 12.828125 33.914062 12.765625 C 33.441406 12.683594 32.75 12.597656 32.332031 12.90625 C 32.023438 13.148438 31.835938 13.632812 31.675781 14.425781 L 29.316406 25.910156 C 29.433594 26.105469 29.539062 26.3125 29.628906 26.515625 C 30.144531 27.660156 30.265625 28.882812 30.144531 30.097656 C 30.167969 30.152344 30.1875 30.214844 30.203125 30.265625 C 30.613281 29.984375 30.878906 29.699219 31.046875 29.414062 C 31.25 29.078125 31.332031 28.75 31.367188 28.457031 C 31.410156 28.066406 31.347656 27.667969 31.226562 26.949219 C 31.179688 26.683594 31.128906 26.375 31.082031 26.082031 C 30.753906 23.941406 31.738281 23.257812 33.425781 23.375 C 34.941406 23.472656 37.054688 24.289062 39.253906 25.210938 C 40.148438 25.59375 40.8125 25.691406 41.285156 25.59375 C 41.488281 25.546875 41.648438 25.476562 41.78125 25.363281 C 41.914062 25.253906 42.011719 25.113281 42.074219 24.945312 C 42.242188 24.535156 42.242188 23.976562 42.128906 23.382812 C 42.046875 22.984375 42.019531 22.859375 41.996094 22.734375 C 41.753906 21.574219 41.558594 20.277344 41.558594 19.074219 C 41.558594 18.824219 41.78125 18.316406 42.066406 19.125 C 42.570312 20.582031 43.734375 22.222656 44.601562 23.953125 C 45.347656 25.433594 45.5 27.179688 44.28125 28.289062 C 44.308594 28.972656 44.222656 29.53125 44.027344 30.027344 C 43.847656 30.507812 43.574219 30.914062 43.234375 31.324219 C 43.261719 31.394531 43.28125 31.472656 43.289062 31.554688 C 43.316406 31.695312 43.316406 31.835938 43.308594 31.96875 C 43.253906 32.628906 42.835938 33.320312 42.152344 34.003906 L 42.152344 34.207031 C 42.144531 34.320312 42.128906 34.453125 42.09375 34.585938 C 41.933594 35.226562 41.445312 36.023438 40.449219 36.679688 C 40.40625 36.910156 40.335938 37.132812 40.253906 37.335938 C 39.777344 38.527344 38.746094 39.148438 37.460938 39.414062 C 36.21875 39.671875 34.746094 39.574219 33.300781 39.324219 C 31.570312 39.023438 29.886719 38.472656 28.707031 37.992188 C 28.632812 38.054688 28.574219 38.117188 28.5 38.179688 C 28.316406 38.339844 28.136719 38.480469 27.953125 38.625 C 27.046875 39.289062 26.007812 39.777344 24.996094 40.050781 Z M 25.015625 40.050781 "/>
<path style=" stroke:none;fill-rule:nonzero;fill:rgb(100%,100%,100%);fill-opacity:1;" d="M 24.390625 21.824219 C 24.613281 22.105469 24.84375 22.398438 25.019531 22.753906 C 25.1875 22.398438 25.417969 22.105469 25.640625 21.824219 C 25.988281 21.378906 26.324219 20.960938 26.339844 20.324219 C 26.359375 19.667969 25.96875 19.132812 25.585938 18.59375 C 25.382812 18.300781 25.179688 18.015625 25.019531 17.707031 C 24.859375 18.015625 24.65625 18.308594 24.453125 18.59375 C 24.070312 19.132812 23.679688 19.667969 23.699219 20.324219 C 23.707031 20.960938 24.042969 21.378906 24.398438 21.824219 Z M 24.390625 21.824219 "/>
<path style=" stroke:none;fill-rule:nonzero;fill:rgb(100%,100%,100%);fill-opacity:1;" d="M 9.839844 36.230469 C 10.382812 36.460938 10.878906 36.582031 11.375 36.636719 C 11.828125 36.691406 12.289062 36.679688 12.785156 36.664062 C 13.132812 36.644531 13.167969 37.203125 12.777344 37.222656 C 12.269531 37.25 11.800781 37.25 11.3125 37.195312 C 10.949219 37.160156 10.585938 37.089844 10.203125 36.964844 C 10.222656 37.035156 10.25 37.097656 10.273438 37.160156 C 10.675781 38.144531 11.5625 38.675781 12.671875 38.898438 C 13.832031 39.136719 15.234375 39.050781 16.628906 38.800781 C 18.074219 38.542969 19.492188 38.117188 20.59375 37.710938 C 18.949219 37.410156 17.683594 36.851562 16.804688 35.988281 C 15.8125 35.023438 15.339844 33.699219 15.4375 31.960938 C 15.5 30.828125 15.847656 29.664062 16.164062 28.582031 C 16.386719 27.828125 16.601562 27.109375 16.6875 26.488281 C 16.859375 25.335938 16.566406 24.476562 15.003906 24.242188 C 13.804688 24.574219 12.414062 25.121094 10.976562 25.726562 C 9.964844 26.152344 9.191406 26.257812 8.617188 26.140625 C 8.316406 26.082031 8.074219 25.964844 7.871094 25.796875 C 7.675781 25.628906 7.527344 25.414062 7.417969 25.175781 C 7.207031 24.660156 7.195312 23.988281 7.339844 23.285156 C 7.347656 23.242188 7.410156 22.941406 7.472656 22.636719 C 7.605469 21.980469 7.738281 21.378906 7.835938 20.730469 C 7.578125 21.238281 7.285156 21.742188 6.992188 22.25 C 6.089844 23.835938 5.175781 25.425781 5.484375 26.761719 C 5.875 28.449219 7.855469 28.832031 9.300781 29.042969 C 9.921875 29.132812 9.851562 29.691406 9.167969 29.574219 C 8.367188 29.453125 7.445312 29.246094 6.71875 28.929688 C 6.566406 28.855469 6.425781 28.785156 6.285156 28.707031 C 6.300781 29.132812 6.382812 29.496094 6.503906 29.824219 C 7.125 31.429688 8.339844 31.617188 9.886719 31.765625 C 10.605469 31.835938 10.578125 32.386719 9.851562 32.324219 C 9.070312 32.253906 8.21875 32.113281 7.570312 31.847656 C 7.464844 31.800781 7.355469 31.75 7.257812 31.695312 C 7.109375 32.554688 7.792969 33.363281 8.609375 33.761719 C 9.449219 34.171875 10.445312 34.160156 11.101562 34.109375 C 11.597656 34.074219 11.597656 34.667969 11.109375 34.667969 C 10.585938 34.667969 10.007812 34.660156 9.460938 34.585938 C 9.085938 34.535156 8.730469 34.453125 8.414062 34.332031 C 8.421875 34.375 8.429688 34.410156 8.4375 34.453125 C 8.570312 34.976562 8.980469 35.632812 9.8125 36.203125 Z M 9.839844 36.230469 "/>
<path style=" stroke:none;fill-rule:nonzero;fill:rgb(100%,100%,100%);fill-opacity:1;" d="M 23.316406 24.023438 C 22.101562 24.828125 21.335938 25.753906 20.894531 26.738281 C 20.554688 27.492188 20.40625 28.289062 20.386719 29.105469 C 20.699219 28.636719 21.070312 28.210938 21.453125 27.785156 C 22.285156 26.835938 23.136719 25.867188 23.289062 24.378906 C 23.296875 24.261719 23.304688 24.148438 23.316406 24.023438 Z M 23.316406 24.023438 "/>
<path style=" stroke:none;fill-rule:nonzero;fill:rgb(100%,100%,100%);fill-opacity:1;" d="M 24.691406 42.226562 L 24.691406 40.574219 C 24.121094 40.523438 23.8125 40.371094 23.199219 40.21875 C 22.003906 39.917969 20.714844 39.589844 19.367188 40.007812 C 18.828125 40.175781 18.355469 40.335938 17.929688 40.496094 C 16.929688 40.851562 16.113281 41.144531 15.011719 41.25 C 14.976562 41.417969 14.933594 41.59375 14.894531 41.773438 C 14.808594 42.152344 14.726562 42.554688 14.605469 42.925781 C 15.515625 42.90625 16.351562 42.519531 17.167969 42.144531 C 17.691406 41.90625 18.207031 41.667969 18.730469 41.523438 C 20.832031 40.964844 22.25 41.433594 23.570312 41.871094 C 24.050781 42.03125 24.246094 42.128906 24.699219 42.226562 Z M 24.691406 42.226562 "/>
<path style=" stroke:none;fill-rule:nonzero;fill:rgb(100%,100%,100%);fill-opacity:1;" d="M 40.203125 36.230469 C 39.660156 36.460938 39.164062 36.582031 38.667969 36.636719 C 38.214844 36.691406 37.753906 36.679688 37.257812 36.664062 C 36.910156 36.644531 36.875 37.203125 37.265625 37.222656 C 37.773438 37.25 38.242188 37.25 38.730469 37.195312 C 39.09375 37.160156 39.457031 37.089844 39.839844 36.964844 C 39.820312 37.035156 39.792969 37.097656 39.769531 37.160156 C 39.367188 38.144531 38.480469 38.675781 37.371094 38.898438 C 36.210938 39.136719 34.808594 39.050781 33.425781 38.800781 C 31.980469 38.542969 30.558594 38.117188 29.460938 37.710938 C 31.101562 37.410156 32.371094 36.851562 33.246094 35.988281 C 34.242188 35.023438 34.710938 33.699219 34.613281 31.960938 C 34.550781 30.828125 34.207031 29.664062 33.886719 28.582031 C 33.664062 27.828125 33.453125 27.109375 33.363281 26.488281 C 33.203125 25.335938 33.488281 24.476562 35.046875 24.242188 C 36.246094 24.574219 37.640625 25.121094 39.074219 25.726562 C 40.085938 26.152344 40.859375 26.257812 41.4375 26.140625 C 41.738281 26.082031 41.976562 25.964844 42.179688 25.796875 C 42.375 25.628906 42.527344 25.414062 42.632812 25.175781 C 42.847656 24.660156 42.855469 23.988281 42.714844 23.285156 C 42.703125 23.242188 42.640625 22.941406 42.578125 22.636719 C 42.4375 21.980469 42.3125 21.378906 42.214844 20.730469 C 42.472656 21.238281 42.765625 21.742188 43.050781 22.25 C 43.964844 23.835938 44.867188 25.425781 44.558594 26.761719 C 44.167969 28.449219 42.191406 28.832031 40.742188 29.042969 C 40.121094 29.132812 40.195312 29.691406 40.875 29.574219 C 41.675781 29.453125 42.597656 29.246094 43.324219 28.929688 C 43.476562 28.855469 43.617188 28.785156 43.75 28.707031 C 43.734375 29.132812 43.652344 29.496094 43.527344 29.824219 C 42.910156 31.429688 41.691406 31.617188 40.140625 31.765625 C 39.421875 31.835938 39.457031 32.386719 40.175781 32.324219 C 40.949219 32.253906 41.808594 32.113281 42.457031 31.847656 C 42.5625 31.800781 42.667969 31.75 42.765625 31.695312 C 42.917969 32.554688 42.234375 33.363281 41.410156 33.761719 C 40.566406 34.171875 39.574219 34.160156 38.917969 34.109375 C 38.429688 34.074219 38.417969 34.667969 38.90625 34.667969 C 39.441406 34.667969 40.015625 34.660156 40.558594 34.585938 C 40.929688 34.535156 41.285156 34.453125 41.605469 34.332031 C 41.59375 34.375 41.585938 34.410156 41.578125 34.453125 C 41.445312 34.976562 41.035156 35.632812 40.203125 36.203125 Z M 40.203125 36.230469 "/>
<path style=" stroke:none;fill-rule:nonzero;fill:rgb(100%,100%,100%);fill-opacity:1;" d="M 26.726562 24.023438 C 27.941406 24.828125 28.707031 25.753906 29.148438 26.738281 C 29.496094 27.492188 29.644531 28.289062 29.65625 29.105469 C 29.34375 28.636719 28.972656 28.210938 28.589844 27.785156 C 27.757812 26.835938 26.90625 25.867188 26.753906 24.378906 C 26.746094 24.261719 26.738281 24.148438 26.726562 24.023438 Z M 26.726562 24.023438 "/>
<path style=" stroke:none;fill-rule:nonzero;fill:rgb(100%,100%,100%);fill-opacity:1;" d="M 35.515625 40.921875 C 35.507812 40.902344 35.515625 40.921875 35.515625 40.921875 Z M 35.515625 40.921875 "/>
<path style=" stroke:none;fill-rule:nonzero;fill:rgb(100%,100%,100%);fill-opacity:1;" d="M 25.328125 42.226562 L 25.328125 40.574219 C 25.902344 40.523438 26.207031 40.371094 26.816406 40.21875 C 28.015625 39.917969 29.3125 39.589844 30.648438 40.007812 C 31.191406 40.175781 31.652344 40.335938 32.085938 40.496094 C 33.089844 40.851562 33.90625 41.144531 35.003906 41.25 C 35.042969 41.417969 35.085938 41.59375 35.121094 41.773438 C 35.199219 42.152344 35.289062 42.554688 35.40625 42.925781 C 34.492188 42.90625 33.65625 42.519531 32.851562 42.144531 C 32.328125 41.90625 31.8125 41.667969 31.28125 41.523438 C 29.175781 40.964844 27.757812 41.433594 26.4375 41.871094 C 25.957031 42.03125 25.761719 42.128906 25.308594 42.226562 Z M 25.328125 42.226562 "/>
<path style=" stroke:none;fill-rule:nonzero;fill:rgb(100%,100%,100%);fill-opacity:1;" d="M 25.015625 42.847656 C 25.601562 42.800781 25.972656 42.625 26.628906 42.402344 C 27.878906 41.996094 29.21875 41.550781 31.164062 42.066406 C 31.640625 42.191406 32.128906 42.421875 32.636719 42.652344 C 32.945312 42.792969 33.273438 42.945312 33.601562 43.078125 C 34.230469 43.324219 34.898438 43.511719 35.632812 43.484375 C 35.722656 43.6875 35.828125 43.875 35.960938 44.050781 C 34.789062 44 33.726562 43.546875 32.75 43.121094 C 32.15625 42.863281 31.589844 42.625 31.03125 42.484375 C 28.996094 41.976562 27.976562 42.359375 26.84375 42.785156 C 26.105469 43.058594 25.664062 43.226562 25.015625 43.289062 C 24.367188 43.238281 23.914062 43.058594 23.1875 42.785156 C 22.050781 42.359375 21.03125 41.976562 19 42.484375 C 18.441406 42.625 17.882812 42.863281 17.289062 43.121094 C 16.3125 43.539062 15.25 44 14.078125 44.050781 C 14.203125 43.875 14.308594 43.6875 14.40625 43.484375 C 15.140625 43.511719 15.808594 43.335938 16.445312 43.078125 C 16.773438 42.945312 17.09375 42.800781 17.402344 42.652344 C 17.902344 42.421875 18.398438 42.191406 18.875 42.066406 C 20.820312 41.550781 22.160156 41.996094 23.402344 42.402344 C 24.066406 42.625 24.4375 42.800781 25.023438 42.847656 Z M 25.015625 42.847656 "/>
<path style="fill-rule:nonzero;fill:rgb(100%,100%,100%);fill-opacity:1;stroke-width:4.4495;stroke-linecap:butt;stroke-linejoin:miter;stroke:rgb(0%,0%,0%);stroke-opacity:1;stroke-miterlimit:4;" d="M 200.125 350.875 C 206.09375 350.4375 210.75 348.4375 216.3125 346.375 C 224.6875 343.1875 232.28125 340.4375 247.1875 344.125 C 251.28125 345.1875 255.625 347.03125 260.21875 349 C 269.875 353.125 280.53125 357.75 292.9375 356.75 L 294.15625 352.78125 C 288.84375 348.59375 287.125 340.71875 285.5 333.25 C 285.0625 331.28125 284.65625 329.34375 284.15625 327.375 L 283.71875 325.8125 L 282.15625 325.65625 C 273 324.96875 266.75 322.1875 258.65625 319.34375 C 255.1875 318.15625 252.4375 316.375 248.03125 315.03125 C 236.03125 311.25 223.75 314.875 213.59375 317.4375 C 208.21875 318.78125 203.8125 322.40625 199.0625 322.53125 L 198.40625 322.53125 C 193.65625 322.40625 192.25 318.84375 186.90625 317.4375 C 176.78125 314.875 165.78125 312.125 153.84375 315.8125 C 149.4375 317.15625 144.625 320.0625 141.15625 321.28125 C 133.0625 324.1875 126.65625 326.03125 118.375 325.65625 L 116.8125 325.8125 L 116.375 327.375 C 115.8125 329.4375 115.46875 331.34375 114.96875 333.25 C 113.3125 340.71875 111.5625 348.59375 106.3125 352.78125 L 107.5 356.75 C 119.9375 357.8125 130.65625 353.1875 140.21875 349 C 144.84375 347.03125 149.25 345.1875 153.28125 344.125 C 168.1875 340.34375 175.71875 343.1875 184.15625 346.375 C 189.6875 348.4375 194.4375 350.4375 200.40625 350.875 Z M 200.125 350.875 " transform="matrix(0.125,0,0,0.125,0,0)"/>
<path style=" stroke:none;fill-rule:nonzero;fill:rgb(100%,100%,100%);fill-opacity:1;" d="M 25.015625 35.386719 C 24.875 35.386719 24.847656 35.617188 24.777344 35.828125 C 24.714844 36.023438 24.632812 36.195312 24.527344 36.371094 C 24.472656 36.46875 24.421875 36.558594 24.375 36.65625 C 23.949219 37.605469 24.410156 38.242188 25.007812 38.855469 C 25.628906 38.207031 26.0625 37.59375 25.636719 36.65625 C 25.589844 36.558594 25.539062 36.46875 25.492188 36.371094 C 25.394531 36.195312 25.316406 36.015625 25.246094 35.828125 C 25.175781 35.617188 25.148438 35.386719 25.007812 35.386719 Z M 25.015625 35.386719 "/>
<path style=" stroke:none;fill-rule:nonzero;fill:rgb(100%,100%,100%);fill-opacity:1;" d="M 26.140625 22.292969 C 26.121094 22.308594 26.105469 22.335938 26.085938 22.363281 C 25.785156 22.746094 25.476562 23.144531 25.339844 23.703125 C 25.199219 24.324219 24.84375 24.378906 24.710938 23.730469 C 24.605469 23.222656 24.339844 22.851562 24.074219 22.496094 L 24.074219 22.515625 C 24.019531 22.441406 23.964844 22.371094 23.914062 22.300781 C 23.914062 22.984375 23.90625 23.84375 23.851562 24.4375 C 23.675781 26.097656 22.769531 27.144531 21.875 28.15625 C 21.171875 28.953125 20.488281 29.734375 20.25 30.773438 L 20.160156 31.144531 L 19.832031 30.949219 C 19.160156 30.558594 18.742188 30.132812 18.492188 29.71875 C 18.234375 29.292969 18.136719 28.890625 18.09375 28.539062 C 18.039062 28.078125 18.113281 27.652344 18.234375 26.871094 C 18.269531 26.648438 18.316406 26.390625 18.367188 26.007812 C 18.617188 24.378906 17.882812 23.863281 16.613281 23.941406 C 16.460938 23.953125 16.3125 23.96875 16.140625 23.996094 C 17.199219 24.484375 17.394531 25.40625 17.226562 26.566406 C 17.136719 27.234375 16.914062 27.96875 16.683594 28.75 C 16.371094 29.796875 16.042969 30.925781 15.984375 31.996094 C 15.894531 33.566406 16.3125 34.746094 17.179688 35.597656 C 18.066406 36.46875 19.433594 37 21.234375 37.257812 L 21.394531 37.335938 C 21.542969 37.496094 21.703125 37.648438 21.863281 37.789062 C 22.03125 37.933594 22.203125 38.074219 22.378906 38.207031 C 22.972656 38.652344 24.207031 39.5625 24.925781 39.546875 C 25.679688 39.539062 27.628906 38.207031 27.628906 38.207031 C 27.628906 38.207031 27.984375 37.941406 28.144531 37.789062 C 28.3125 37.648438 28.472656 37.496094 28.625 37.335938 L 28.785156 37.257812 C 30.585938 37 31.949219 36.46875 32.835938 35.597656 C 33.707031 34.746094 34.125 33.566406 34.035156 31.996094 C 33.972656 30.914062 33.644531 29.796875 33.335938 28.75 C 33.105469 27.96875 32.890625 27.234375 32.792969 26.566406 C 32.625 25.40625 32.820312 24.484375 33.875 23.996094 C 33.714844 23.96875 33.554688 23.953125 33.40625 23.941406 C 32.136719 23.855469 31.398438 24.378906 31.648438 26.007812 C 31.710938 26.382812 31.746094 26.640625 31.789062 26.871094 C 31.921875 27.640625 31.996094 28.078125 31.933594 28.539062 C 31.886719 28.890625 31.789062 29.292969 31.535156 29.71875 C 31.277344 30.132812 30.867188 30.558594 30.195312 30.949219 L 29.867188 31.144531 L 29.777344 30.773438 C 29.539062 29.734375 28.855469 28.953125 28.152344 28.15625 C 27.265625 27.144531 26.351562 26.097656 26.175781 24.4375 C 26.113281 23.84375 26.105469 22.976562 26.113281 22.292969 Z M 26.140625 22.292969 "/>
<path style=" stroke:none;fill-rule:nonzero;fill:rgb(100%,100%,100%);fill-opacity:1;" d="M 23.339844 21.503906 C 23.226562 21.238281 23.144531 20.945312 23.136719 20.589844 C 23.117188 19.746094 23.554688 19.132812 23.996094 18.523438 C 24.394531 17.972656 24.714844 17.617188 24.839844 16.820312 C 24.902344 16.417969 25.125 16.480469 25.175781 16.828125 C 25.308594 17.574219 25.636719 17.953125 26.046875 18.523438 C 26.480469 19.132812 26.925781 19.746094 26.90625 20.589844 C 26.898438 20.945312 26.816406 21.246094 26.703125 21.503906 C 26.703125 22.089844 26.691406 22.851562 26.703125 23.410156 C 27.652344 23.988281 28.371094 24.632812 28.910156 25.324219 L 28.917969 25.273438 L 31.164062 14.371094 C 31.359375 13.4375 31.582031 12.851562 32.035156 12.515625 C 32.210938 12.382812 32.40625 12.304688 32.644531 12.257812 C 32.582031 12.214844 32.511719 12.171875 32.449219 12.125 C 31.742188 11.648438 31.03125 11.175781 30.277344 11.648438 C 30.003906 11.824219 29.867188 11.957031 29.816406 12.269531 L 28.714844 18.363281 C 28.617188 18.824219 28.058594 18.734375 28.175781 18.210938 L 29.238281 12.3125 C 29.308594 11.941406 29.417969 11.53125 29.308594 11.167969 C 29.152344 10.625 28.636719 10.273438 28.164062 9.945312 C 27.953125 9.792969 27.75 9.652344 27.582031 9.5 C 27.5625 9.640625 27.535156 9.773438 27.519531 9.890625 L 26.828125 16.90625 C 26.773438 17.34375 26.222656 17.289062 26.277344 16.785156 L 26.863281 10.8125 C 26.925781 10.210938 26.949219 9.925781 26.5 9.492188 C 26.3125 9.3125 26.082031 9.136719 25.867188 8.96875 C 25.648438 8.800781 25.425781 8.65625 25.246094 8.480469 C 25.160156 8.390625 25.078125 8.292969 25.015625 8.195312 C 24.953125 8.292969 24.875 8.390625 24.777344 8.480469 C 24.601562 8.648438 24.378906 8.800781 24.15625 8.96875 C 23.941406 9.136719 23.722656 9.304688 23.527344 9.492188 C 23.074219 9.917969 23.109375 10.210938 23.164062 10.8125 L 23.75 16.785156 C 23.800781 17.289062 23.25 17.332031 23.199219 16.90625 L 22.507812 9.890625 C 22.488281 9.773438 22.46875 9.640625 22.445312 9.5 C 22.265625 9.652344 22.0625 9.792969 21.851562 9.945312 C 21.386719 10.261719 20.875 10.617188 20.714844 11.167969 C 20.609375 11.539062 20.714844 11.949219 20.777344 12.3125 L 21.839844 18.210938 C 21.957031 18.734375 21.40625 18.824219 21.300781 18.363281 L 20.199219 12.269531 C 20.148438 11.957031 20.011719 11.824219 19.738281 11.648438 C 18.992188 11.167969 18.285156 11.648438 17.574219 12.125 C 17.511719 12.171875 17.441406 12.214844 17.378906 12.257812 C 17.609375 12.304688 17.8125 12.390625 17.992188 12.515625 C 18.433594 12.84375 18.664062 13.4375 18.859375 14.371094 L 21.097656 25.273438 L 21.105469 25.324219 C 21.636719 24.632812 22.355469 23.988281 23.304688 23.410156 C 23.3125 22.851562 23.304688 22.089844 23.3125 21.503906 Z M 23.339844 21.503906 "/>
<path style=" stroke:none;fill-rule:nonzero;fill:rgb(0%,0%,0%);fill-opacity:1;" d="M 36.101562 43.148438 C 36.136719 43.246094 36.179688 43.335938 36.234375 43.433594 C 35.105469 43.6875 33.839844 43.203125 32.683594 42.679688 C 31.816406 42.289062 30.945312 41.898438 30.121094 41.863281 C 29.179688 41.816406 28.304688 41.90625 27.441406 42.109375 C 26.582031 42.3125 25.75 42.644531 24.878906 43.078125 C 24.871094 43.085938 24.871094 43.085938 24.859375 43.085938 L 24.816406 43.085938 C 24.816406 43.085938 24.808594 43.085938 24.808594 43.078125 C 24.808594 43.078125 24.796875 43.078125 24.796875 43.070312 C 23.9375 42.632812 23.09375 42.304688 22.234375 42.101562 C 21.375 41.898438 20.496094 41.808594 19.554688 41.851562 C 18.722656 41.886719 17.933594 42.289062 17.160156 42.667969 C 16.140625 43.175781 15.03125 43.617188 13.90625 43.359375 L 14.039062 43.078125 C 15.050781 43.308594 16.050781 42.875 17.027344 42.386719 C 17.835938 41.984375 18.660156 41.578125 19.546875 41.535156 C 20.515625 41.488281 21.417969 41.578125 22.316406 41.789062 C 23.175781 41.996094 24.019531 42.324219 24.886719 42.75 C 25.746094 42.3125 26.601562 41.996094 27.460938 41.789062 C 28.347656 41.578125 29.253906 41.488281 30.226562 41.535156 C 31.105469 41.578125 32.003906 41.976562 32.898438 42.386719 C 34.007812 42.882812 35.160156 43.371094 36.1875 43.140625 Z M 36.101562 43.148438 "/>
<path style=" stroke:none;fill-rule:nonzero;fill:rgb(0%,0%,0%);fill-opacity:1;" d="M 35.433594 40.628906 C 35.46875 40.726562 35.515625 40.816406 35.566406 40.914062 C 34.441406 41.097656 33.847656 40.621094 32.683594 40.132812 C 31.816406 39.742188 30.945312 39.351562 30.121094 39.316406 C 29.179688 39.269531 28.304688 39.359375 27.441406 39.5625 C 26.582031 39.769531 25.75 40.097656 24.878906 40.53125 C 24.871094 40.539062 24.871094 40.539062 24.859375 40.539062 L 24.84375 40.558594 L 24.808594 40.558594 C 24.808594 40.558594 24.796875 40.558594 24.796875 40.546875 C 24.796875 40.546875 24.789062 40.546875 24.789062 40.539062 C 23.929688 40.105469 23.085938 39.777344 22.226562 39.574219 C 19.023438 38.800781 16.796875 41.4375 14.570312 40.929688 L 14.703125 40.644531 C 16.761719 41.117188 19.128906 38.507812 22.296875 39.269531 C 23.15625 39.476562 24 39.804688 24.871094 40.230469 C 25.730469 39.804688 26.582031 39.476562 27.441406 39.269531 C 28.328125 39.058594 29.234375 38.96875 30.210938 39.015625 C 31.089844 39.058594 31.984375 39.457031 32.878906 39.867188 C 33.988281 40.328125 34.476562 40.761719 35.496094 40.644531 Z M 35.433594 40.628906 "/>
<path style=" stroke:none;fill-rule:nonzero;fill:rgb(0%,0%,0%);fill-opacity:1;" d="M 24.621094 40.390625 L 24.933594 40.390625 L 24.933594 42.792969 L 24.621094 42.792969 Z M 24.621094 40.390625 "/>
<path style=" stroke:none;fill-rule:nonzero;fill:rgb(0%,0%,0%);fill-opacity:1;" d="M 8.585938 16.996094 C 7.601562 16.527344 7.113281 16.296875 6.128906 15.824219 C 5.941406 16.214844 5.851562 16.417969 5.683594 16.828125 C 5.480469 16.738281 5.375 16.703125 5.167969 16.613281 C 5.628906 15.496094 5.894531 14.964844 6.472656 13.960938 C 6.667969 14.078125 6.757812 14.132812 6.953125 14.238281 C 6.738281 14.601562 6.640625 14.789062 6.445312 15.167969 C 7.414062 15.664062 7.890625 15.921875 8.859375 16.417969 C 8.742188 16.640625 8.691406 16.757812 8.574219 16.996094 Z M 8.585938 16.996094 "/>
<path style=" stroke:none;fill-rule:nonzero;fill:rgb(0%,0%,0%);fill-opacity:1;" d="M 6.714844 13.5625 C 6.863281 13.316406 6.945312 13.191406 7.09375 12.953125 C 7.6875 13.34375 7.980469 13.539062 8.574219 13.925781 C 8.808594 14.085938 8.964844 14.175781 9.046875 14.210938 C 9.171875 14.265625 9.292969 14.265625 9.417969 14.230469 C 9.542969 14.195312 9.648438 14.097656 9.757812 13.953125 C 9.851562 13.8125 9.90625 13.679688 9.898438 13.5625 C 9.890625 13.449219 9.84375 13.34375 9.765625 13.261719 C 9.683594 13.183594 9.542969 13.058594 9.339844 12.90625 C 8.761719 12.472656 8.46875 12.25 7.894531 11.816406 C 8.0625 11.585938 8.148438 11.480469 8.320312 11.257812 C 8.851562 11.691406 9.125 11.90625 9.660156 12.339844 C 9.960938 12.589844 10.171875 12.773438 10.277344 12.90625 C 10.386719 13.03125 10.457031 13.171875 10.492188 13.304688 C 10.527344 13.449219 10.527344 13.589844 10.492188 13.75 C 10.457031 13.910156 10.367188 14.078125 10.234375 14.273438 C 10.066406 14.503906 9.925781 14.671875 9.78125 14.761719 C 9.640625 14.851562 9.5 14.902344 9.355469 14.910156 C 9.214844 14.929688 9.082031 14.910156 8.957031 14.867188 C 8.78125 14.804688 8.53125 14.679688 8.222656 14.484375 C 7.625 14.121094 7.324219 13.9375 6.730469 13.574219 Z M 6.714844 13.5625 "/>
<path style=" stroke:none;fill-rule:nonzero;fill:rgb(0%,0%,0%);fill-opacity:1;" d="M 11.703125 12.320312 C 10.90625 11.574219 10.503906 11.203125 9.707031 10.464844 C 9.441406 10.757812 9.308594 10.910156 9.050781 11.210938 C 8.882812 11.070312 8.792969 11 8.625 10.855469 C 9.335938 10.015625 9.707031 9.613281 10.496094 8.886719 C 10.648438 9.046875 10.71875 9.136719 10.871094 9.296875 C 10.585938 9.5625 10.445312 9.695312 10.167969 9.980469 C 10.941406 10.75 11.332031 11.132812 12.101562 11.894531 C 11.941406 12.0625 11.855469 12.144531 11.703125 12.320312 Z M 11.703125 12.320312 "/>
<path style=" stroke:none;fill-rule:nonzero;fill:rgb(0%,0%,0%);fill-opacity:1;" d="M 14.164062 10.101562 C 13.164062 9.214844 12.648438 8.78125 11.574219 7.964844 C 11.789062 7.789062 11.894531 7.707031 12.117188 7.539062 C 12.816406 8.144531 13.164062 8.445312 13.835938 9.074219 C 13.492188 8.214844 13.320312 7.777344 13.019531 6.902344 C 13.285156 6.722656 13.417969 6.632812 13.6875 6.476562 C 14.367188 7.132812 14.695312 7.46875 15.34375 8.152344 C 15.035156 7.273438 14.890625 6.828125 14.617188 5.925781 C 14.847656 5.792969 14.972656 5.730469 15.203125 5.613281 C 15.53125 6.925781 15.707031 7.566406 16.125 8.84375 C 15.921875 8.957031 15.816406 9.019531 15.609375 9.144531 C 14.910156 8.425781 14.546875 8.070312 13.800781 7.386719 C 14.128906 8.347656 14.296875 8.816406 14.679688 9.757812 C 14.476562 9.898438 14.378906 9.96875 14.183594 10.121094 Z M 14.164062 10.101562 "/>
<path style=" stroke:none;fill-rule:nonzero;fill:rgb(0%,0%,0%);fill-opacity:1;" d="M 15.488281 5.453125 C 15.730469 5.339844 15.84375 5.285156 16.085938 5.171875 C 16.386719 5.816406 16.535156 6.136719 16.828125 6.785156 C 16.945312 7.042969 17.035156 7.203125 17.078125 7.273438 C 17.15625 7.386719 17.253906 7.460938 17.371094 7.496094 C 17.484375 7.53125 17.617188 7.519531 17.769531 7.460938 C 17.921875 7.398438 18.019531 7.316406 18.0625 7.210938 C 18.105469 7.113281 18.125 7.007812 18.097656 6.890625 C 18.070312 6.785156 18.007812 6.609375 17.921875 6.359375 C 17.65625 5.683594 17.519531 5.347656 17.253906 4.675781 C 17.503906 4.578125 17.617188 4.53125 17.867188 4.441406 C 18.097656 5.089844 18.214844 5.417969 18.453125 6.066406 C 18.585938 6.4375 18.664062 6.707031 18.691406 6.863281 C 18.71875 7.023438 18.710938 7.175781 18.675781 7.308594 C 18.640625 7.441406 18.566406 7.566406 18.460938 7.671875 C 18.355469 7.777344 18.203125 7.875 18.007812 7.964844 C 17.769531 8.0625 17.566406 8.117188 17.414062 8.105469 C 17.265625 8.097656 17.121094 8.0625 17 7.992188 C 16.875 7.921875 16.777344 7.839844 16.695312 7.734375 C 16.582031 7.582031 16.4375 7.34375 16.269531 7.015625 C 15.960938 6.386719 15.800781 6.074219 15.488281 5.453125 Z M 15.488281 5.453125 "/>
<path style=" stroke:none;fill-rule:nonzero;fill:rgb(0%,0%,0%);fill-opacity:1;" d="M 19.550781 7.351562 C 19.144531 6.101562 18.949219 5.480469 18.542969 4.238281 C 19.066406 4.070312 19.332031 4 19.863281 3.867188 C 20.199219 3.785156 20.449219 3.761719 20.617188 3.785156 C 20.785156 3.8125 20.925781 3.894531 21.042969 4.019531 C 21.167969 4.152344 21.238281 4.308594 21.28125 4.496094 C 21.328125 4.734375 21.300781 4.949219 21.203125 5.136719 C 21.105469 5.320312 20.6875 5.550781 20.6875 5.550781 C 20.6875 5.5625 20.953125 5.675781 21.058594 5.757812 C 21.167969 5.835938 21.308594 5.988281 21.496094 6.207031 C 21.679688 6.429688 21.769531 6.546875 21.949219 6.777344 C 21.691406 6.820312 21.558594 6.847656 21.300781 6.902344 C 21.078125 6.652344 20.972656 6.535156 20.742188 6.296875 C 20.539062 6.085938 20.394531 5.953125 20.324219 5.90625 C 20.253906 5.855469 20.183594 5.828125 20.121094 5.820312 C 20.050781 5.808594 19.953125 5.828125 19.820312 5.863281 C 19.773438 5.871094 19.746094 5.878906 19.703125 5.898438 C 19.855469 6.421875 19.933594 6.6875 20.085938 7.210938 C 19.871094 7.273438 19.765625 7.300781 19.550781 7.371094 Z M 19.5625 5.375 C 19.738281 5.320312 19.820312 5.304688 19.996094 5.257812 C 20.28125 5.1875 20.457031 5.136719 20.519531 5.089844 C 20.582031 5.046875 20.625 4.992188 20.652344 4.914062 C 20.679688 4.84375 20.679688 4.753906 20.660156 4.65625 C 20.632812 4.550781 20.589844 4.46875 20.519531 4.417969 C 20.449219 4.363281 20.359375 4.335938 20.253906 4.347656 C 20.199219 4.347656 20.050781 4.382812 19.800781 4.445312 C 19.605469 4.496094 19.515625 4.515625 19.320312 4.578125 C 19.417969 4.894531 19.464844 5.054688 19.550781 5.375 Z M 19.5625 5.375 "/>
<path style=" stroke:none;fill-rule:nonzero;fill:rgb(0%,0%,0%);fill-opacity:1;" d="M 22.226562 6.722656 C 22.015625 5.429688 21.90625 4.789062 21.695312 3.496094 C 21.953125 3.449219 22.085938 3.433594 22.34375 3.398438 C 22.519531 4.691406 22.609375 5.339844 22.777344 6.644531 C 22.554688 6.671875 22.449219 6.6875 22.226562 6.722656 Z M 22.226562 6.722656 "/>
<path style=" stroke:none;fill-rule:nonzero;fill:rgb(0%,0%,0%);fill-opacity:1;" d="M 24.351562 6.503906 C 24.289062 5.199219 24.265625 4.542969 24.191406 3.238281 C 24.449219 3.230469 24.582031 3.21875 24.839844 3.21875 C 24.847656 3.734375 24.859375 3.992188 24.867188 4.507812 C 25.347656 4.496094 25.585938 4.496094 26.066406 4.523438 C 26.082031 4.007812 26.101562 3.753906 26.117188 3.238281 C 26.375 3.246094 26.507812 3.253906 26.765625 3.273438 C 26.675781 4.578125 26.625 5.234375 26.535156 6.539062 C 26.3125 6.519531 26.207031 6.519531 25.984375 6.511719 C 26.011719 5.941406 26.019531 5.652344 26.046875 5.082031 C 25.578125 5.066406 25.347656 5.066406 24.875 5.066406 C 24.882812 5.640625 24.894531 5.925781 24.902344 6.492188 C 24.679688 6.492188 24.574219 6.503906 24.351562 6.511719 Z M 24.351562 6.503906 "/>
<path style=" stroke:none;fill-rule:nonzero;fill:rgb(0%,0%,0%);fill-opacity:1;" d="M 29.550781 6.980469 C 29.320312 6.925781 29.199219 6.902344 28.957031 6.855469 C 28.921875 6.546875 28.90625 6.394531 28.859375 6.085938 C 28.40625 6.003906 28.1875 5.96875 27.734375 5.90625 C 27.601562 6.191406 27.539062 6.332031 27.414062 6.617188 C 27.183594 6.589844 27.070312 6.582031 26.828125 6.554688 C 27.371094 5.285156 27.679688 4.65625 28.363281 3.433594 C 28.640625 3.46875 28.773438 3.496094 29.046875 3.539062 C 29.332031 4.914062 29.429688 5.605469 29.550781 6.980469 Z M 28.789062 5.5 C 28.71875 4.992188 28.675781 4.738281 28.585938 4.230469 C 28.347656 4.683594 28.222656 4.914062 28 5.375 C 28.320312 5.417969 28.480469 5.445312 28.789062 5.5 Z M 28.789062 5.5 "/>
<path style=" stroke:none;fill-rule:nonzero;fill:rgb(0%,0%,0%);fill-opacity:1;" d="M 29.851562 7.050781 C 30.179688 5.785156 30.347656 5.144531 30.667969 3.875 C 30.917969 3.9375 31.042969 3.972656 31.28125 4.035156 C 31.546875 5.019531 31.652344 5.515625 31.8125 6.492188 C 32.105469 5.667969 32.257812 5.25 32.550781 4.433594 C 32.78125 4.515625 32.894531 4.558594 33.117188 4.640625 C 32.648438 5.863281 32.40625 6.476562 31.929688 7.691406 C 31.722656 7.609375 31.617188 7.574219 31.40625 7.503906 C 31.273438 6.554688 31.175781 6.078125 30.933594 5.117188 C 30.703125 5.941406 30.578125 6.351562 30.339844 7.167969 C 30.144531 7.113281 30.039062 7.085938 29.84375 7.035156 Z M 29.851562 7.050781 "/>
<path style=" stroke:none;fill-rule:nonzero;fill:rgb(0%,0%,0%);fill-opacity:1;" d="M 33.753906 4.894531 C 34.195312 5.082031 34.417969 5.179688 34.851562 5.390625 C 35.09375 5.507812 35.269531 5.625 35.375 5.730469 C 35.519531 5.871094 35.617188 6.03125 35.660156 6.226562 C 35.703125 6.421875 35.714844 6.625 35.667969 6.839844 C 35.625 7.050781 35.527344 7.289062 35.367188 7.558594 C 35.234375 7.789062 35.082031 7.972656 34.941406 8.117188 C 34.753906 8.285156 34.570312 8.410156 34.382812 8.472656 C 34.242188 8.523438 34.082031 8.53125 33.902344 8.515625 C 33.769531 8.496094 33.609375 8.445312 33.425781 8.355469 C 33.042969 8.167969 32.855469 8.082031 32.464844 7.921875 L 33.753906 4.90625 Z M 34.125 5.660156 C 33.761719 6.449219 33.582031 6.839844 33.210938 7.628906 C 33.371094 7.699219 33.441406 7.734375 33.601562 7.804688 C 33.742188 7.875 33.859375 7.921875 33.929688 7.929688 C 34.027344 7.949219 34.117188 7.949219 34.203125 7.910156 C 34.292969 7.886719 34.382812 7.8125 34.488281 7.707031 C 34.59375 7.601562 34.710938 7.433594 34.824219 7.210938 C 34.949219 6.988281 35.019531 6.804688 35.046875 6.671875 C 35.074219 6.527344 35.074219 6.414062 35.039062 6.304688 C 35.003906 6.199219 34.941406 6.109375 34.84375 6.03125 C 34.773438 5.96875 34.621094 5.878906 34.382812 5.773438 C 34.277344 5.722656 34.222656 5.703125 34.125 5.648438 Z M 34.125 5.660156 "/>
<path style=" stroke:none;fill-rule:nonzero;fill:rgb(0%,0%,0%);fill-opacity:1;" d="M 37.027344 10.671875 C 36.832031 10.511719 36.734375 10.429688 36.539062 10.28125 C 36.644531 9.988281 36.691406 9.835938 36.789062 9.535156 C 36.414062 9.25 36.21875 9.117188 35.828125 8.859375 C 35.589844 9.054688 35.464844 9.152344 35.226562 9.359375 C 35.023438 9.226562 34.925781 9.164062 34.722656 9.046875 C 35.769531 8.140625 36.328125 7.714844 37.488281 6.917969 C 37.71875 7.078125 37.835938 7.15625 38.066406 7.328125 C 37.71875 8.703125 37.515625 9.375 37.027344 10.671875 Z M 36.964844 8.976562 C 37.117188 8.488281 37.195312 8.238281 37.328125 7.734375 C 36.914062 8.035156 36.699219 8.1875 36.292969 8.507812 C 36.566406 8.691406 36.699219 8.78125 36.964844 8.976562 Z M 36.964844 8.976562 "/>
<path style=" stroke:none;fill-rule:nonzero;fill:rgb(0%,0%,0%);fill-opacity:1;" d="M 37.550781 11.113281 C 37.925781 10.707031 38.101562 10.492188 38.476562 10.085938 C 38.644531 9.214844 38.714844 8.773438 38.804688 7.875 C 39.050781 8.070312 39.175781 8.179688 39.414062 8.382812 C 39.316406 8.984375 39.253906 9.277344 39.132812 9.863281 C 39.699219 9.675781 39.984375 9.597656 40.578125 9.445312 C 40.800781 9.667969 40.914062 9.785156 41.128906 10.015625 C 40.230469 10.164062 39.796875 10.261719 38.9375 10.503906 C 38.554688 10.902344 38.367188 11.105469 37.988281 11.503906 C 37.820312 11.34375 37.738281 11.265625 37.5625 11.113281 Z M 37.550781 11.113281 "/>
<path style=" stroke:none;fill-rule:nonzero;fill:rgb(0%,0%,0%);fill-opacity:1;" d="M 40.328125 14.28125 C 40.175781 14.0625 40.097656 13.953125 39.945312 13.75 C 40.125 13.484375 40.203125 13.351562 40.378906 13.085938 C 40.078125 12.695312 39.929688 12.5 39.601562 12.136719 C 39.308594 12.261719 39.164062 12.320312 38.882812 12.457031 C 38.714844 12.269531 38.632812 12.179688 38.457031 12.003906 C 39.707031 11.410156 40.363281 11.140625 41.695312 10.699219 C 41.890625 10.921875 41.976562 11.035156 42.164062 11.273438 C 41.488281 12.535156 41.117188 13.148438 40.320312 14.292969 Z M 40.683594 12.578125 C 40.957031 12.136719 41.089844 11.914062 41.339844 11.460938 C 40.851562 11.628906 40.613281 11.726562 40.132812 11.914062 C 40.355469 12.171875 40.460938 12.304688 40.671875 12.578125 Z M 40.683594 12.578125 "/>
<path style=" stroke:none;fill-rule:nonzero;fill:rgb(0%,0%,0%);fill-opacity:1;" d="M 40.515625 14.558594 C 41.597656 13.820312 42.148438 13.457031 43.21875 12.722656 C 43.378906 12.953125 43.453125 13.074219 43.601562 13.316406 C 43.175781 14.28125 42.9375 14.753906 42.421875 15.648438 C 43.195312 15.230469 43.574219 15.027344 44.347656 14.609375 C 44.480469 14.851562 44.542969 14.972656 44.667969 15.230469 L 41.738281 16.695312 C 41.625 16.464844 41.570312 16.347656 41.445312 16.128906 C 41.960938 15.277344 42.199219 14.832031 42.625 13.910156 C 41.90625 14.371094 41.542969 14.59375 40.824219 15.054688 C 40.703125 14.859375 40.648438 14.761719 40.515625 14.574219 Z M 40.515625 14.558594 "/>
<path style=" stroke:none;fill-rule:nonzero;fill:rgb(0%,0%,0%);fill-opacity:1;" d="M 42.027344 17.269531 C 43.214844 16.730469 43.820312 16.457031 45.007812 15.914062 C 45.132812 16.1875 45.195312 16.332031 45.308594 16.613281 C 44.101562 17.113281 43.5 17.367188 42.285156 17.867188 C 42.1875 17.625 42.132812 17.5 42.027344 17.269531 Z M 42.027344 17.269531 "/>
<path style=" stroke:none;fill-rule:nonzero;fill:rgb(0%,0%,0%);fill-opacity:1;" d="M 24.289062 35.09375 C 24.546875 34.84375 25.46875 34.863281 25.746094 35.09375 C 26.046875 35.34375 25.976562 36.621094 25.976562 36.621094 C 25.976562 36.621094 26.507812 37.300781 26.488281 37.570312 C 26.464844 38.074219 25.503906 38.988281 24.972656 38.988281 C 24.441406 38.988281 23.484375 38.046875 23.457031 37.53125 C 23.4375 37.257812 23.988281 36.546875 23.988281 36.546875 C 23.988281 36.546875 24.015625 35.359375 24.28125 35.09375 Z M 24.308594 36.621094 C 24.308594 36.621094 23.925781 37.203125 23.945312 37.4375 C 23.960938 37.863281 24.617188 38.632812 24.980469 38.632812 C 25.34375 38.632812 26.003906 37.886719 26.019531 37.460938 C 26.027344 37.242188 25.664062 36.679688 25.664062 36.679688 C 25.664062 36.679688 25.71875 35.636719 25.503906 35.429688 C 25.320312 35.234375 24.679688 35.226562 24.511719 35.429688 C 24.324219 35.644531 24.308594 36.628906 24.308594 36.628906 Z M 24.308594 36.621094 "/>
<path style=" stroke:none;fill-rule:nonzero;fill:rgb(100%,100%,100%);fill-opacity:1;" d="M 26.214844 28.882812 C 25.761719 28.164062 25.320312 27.332031 25.007812 26.347656 C 24.628906 27.359375 24.847656 28.351562 25.035156 29.203125 C 25.25 30.171875 25.480469 31.15625 24.972656 32.671875 C 24.785156 33.230469 24.308594 32.847656 24.449219 32.519531 C 25.300781 30.535156 24.28125 28.660156 24.023438 28.113281 C 23.828125 28.8125 23.269531 29.601562 22.96875 30.277344 C 22.550781 31.207031 22.390625 32.40625 22.976562 33.273438 C 23.082031 33.445312 23.226562 33.59375 23.394531 33.734375 C 23.527344 33.84375 23.679688 33.941406 23.847656 34.039062 C 23.945312 33.964844 24.058594 33.914062 24.175781 33.859375 C 24.210938 33.84375 24.246094 33.824219 24.28125 33.816406 C 24.503906 33.734375 24.742188 33.691406 24.992188 33.691406 C 25.34375 33.691406 25.683594 33.78125 25.976562 33.941406 C 26.027344 33.964844 26.082031 34.003906 26.136719 34.039062 C 27.207031 33.46875 27.476562 32.449219 27.351562 31.472656 C 27.324219 31.269531 27.28125 31.058594 27.226562 30.863281 C 27.164062 30.65625 27.09375 30.460938 27.011719 30.285156 C 26.800781 29.804688 26.515625 29.355469 26.222656 28.890625 Z M 26.214844 28.882812 "/>
<path style=" stroke:none;fill-rule:nonzero;fill:rgb(98.431373%,82.352941%,2.352941%);fill-opacity:1;" d="M 25.265625 25.050781 C 25.523438 26.921875 26.144531 27.632812 26.71875 28.617188 C 27.023438 29.097656 27.304688 29.558594 27.535156 30.070312 L 27.535156 30.082031 C 27.625 30.285156 27.703125 30.507812 27.765625 30.730469 C 27.828125 30.949219 27.882812 31.179688 27.910156 31.410156 C 28.066406 32.644531 27.695312 33.929688 26.214844 34.605469 L 26.035156 34.683594 L 25.894531 34.570312 C 25.859375 34.535156 25.824219 34.515625 25.789062 34.488281 C 25.753906 34.464844 25.71875 34.445312 25.671875 34.417969 C 25.46875 34.3125 25.230469 34.242188 24.972656 34.242188 C 24.792969 34.242188 24.625 34.277344 24.476562 34.332031 C 24.449219 34.339844 24.421875 34.347656 24.40625 34.355469 C 24.28125 34.410156 24.164062 34.480469 24.058594 34.570312 L 23.917969 34.683594 L 23.738281 34.605469 L 23.730469 34.605469 C 23.445312 34.472656 23.207031 34.320312 22.992188 34.152344 C 22.78125 33.984375 22.613281 33.789062 22.480469 33.578125 C 21.789062 32.53125 21.957031 31.144531 22.425781 30.089844 C 22.816406 29.210938 23.507812 28.492188 23.695312 27.394531 C 23.757812 27.003906 23.828125 26.59375 24.175781 27.261719 C 24.226562 27.359375 24.289062 27.480469 24.34375 27.675781 C 24.164062 26.984375 24.695312 25.503906 24.882812 25.007812 C 25.050781 24.574219 25.210938 24.4375 25.257812 25.058594 Z M 25.265625 25.050781 "/>
<path style="fill:none;stroke-width:5.191;stroke-linecap:butt;stroke-linejoin:miter;stroke:rgb(0%,0%,0%);stroke-opacity:1;stroke-miterlimit:4;" d="M 202.125 200.40625 C 204.1875 215.375 209.15625 221.0625 213.75 228.9375 C 216.1875 232.78125 218.4375 236.46875 220.28125 240.5625 L 220.28125 240.65625 " transform="matrix(0.125,0,0,0.125,0,0)"/>
<path style="fill:none;stroke-width:5.191;stroke-linecap:butt;stroke-linejoin:miter;stroke:rgb(0%,0%,0%);stroke-opacity:1;stroke-miterlimit:4;" d="M 220.21875 240.59375 C 220.9375 242.21875 221.5625 244 222.0625 245.75 C 222.5625 247.53125 223 249.375 223.1875 251.21875 C 224.46875 261.09375 221.5 271.375 209.65625 276.78125 " transform="matrix(0.125,0,0,0.125,0,0)"/>
<path style="fill:none;stroke-width:5.191;stroke-linecap:butt;stroke-linejoin:miter;stroke:rgb(0%,0%,0%);stroke-opacity:1;stroke-miterlimit:4;" d="M 209.6875 276.78125 L 208.25 277.40625 L 207.125 276.5 " transform="matrix(0.125,0,0,0.125,0,0)"/>
<path style="fill:none;stroke-width:5.191;stroke-linecap:butt;stroke-linejoin:miter;stroke:rgb(0%,0%,0%);stroke-opacity:1;stroke-miterlimit:4;" d="M 207.125 276.5 C 206.84375 276.21875 206.5625 276.0625 206.28125 275.84375 C 206 275.625 205.6875 275.5 205.34375 275.28125 C 203.71875 274.4375 201.8125 273.875 199.75 273.875 C 198.3125 273.875 196.96875 274.15625 195.75 274.5625 C 195.5625 274.65625 195.34375 274.71875 195.1875 274.78125 C 194.21875 275.21875 193.28125 275.78125 192.4375 276.5 " transform="matrix(0.125,0,0,0.125,0,0)"/>
<path style="fill:none;stroke-width:5.191;stroke-linecap:butt;stroke-linejoin:miter;stroke:rgb(0%,0%,0%);stroke-opacity:1;stroke-miterlimit:4;" d="M 192.4375 276.5 L 191.3125 277.40625 L 189.875 276.78125 L 189.8125 276.78125 " transform="matrix(0.125,0,0,0.125,0,0)"/>
<path style="fill:none;stroke-width:5.191;stroke-linecap:butt;stroke-linejoin:miter;stroke:rgb(0%,0%,0%);stroke-opacity:1;stroke-miterlimit:4;" d="M 189.8125 276.78125 C 187.5625 275.71875 185.625 274.5 183.9375 273.15625 C 182.21875 271.8125 180.875 270.25 179.75 268.53125 C 174.21875 260.15625 175.5625 249.09375 179.3125 240.65625 C 182.4375 233.625 187.96875 227.875 189.46875 219.0625 C 189.96875 215.9375 190.53125 212.6875 193.3125 218 C 193.71875 218.78125 194.21875 219.78125 194.71875 221.34375 C 193.3125 215.8125 197.5625 203.96875 199.03125 199.96875 C 200.40625 196.5 201.65625 195.4375 202.03125 200.40625 " transform="matrix(0.125,0,0,0.125,0,0)"/>
<path style=" stroke:none;fill-rule:nonzero;fill:rgb(0%,0%,0%);fill-opacity:1;" d="M 24.378906 27.152344 C 24.378906 27.152344 25.238281 28.929688 25.34375 29.886719 C 25.441406 30.773438 24.476562 32.617188 24.476562 32.617188 C 24.476562 32.617188 24.945312 30.898438 24.882812 29.984375 C 24.828125 29.175781 24.074219 27.554688 24.074219 27.554688 L 24.378906 27.144531 Z M 24.378906 27.152344 "/>
<path style="fill:none;stroke-width:0.74162;stroke-linecap:butt;stroke-linejoin:miter;stroke:rgb(0%,0%,0%);stroke-opacity:1;stroke-miterlimit:4;" d="M 200.125 350.875 C 206.09375 350.4375 210.75 348.4375 216.3125 346.375 C 224.6875 343.1875 232.28125 340.4375 247.1875 344.125 C 251.28125 345.1875 255.625 347.03125 260.21875 349 C 269.875 353.125 280.53125 357.75 292.9375 356.75 " transform="matrix(0.125,0,0,0.125,0,0)"/>
<path style="fill:none;stroke-width:0.74162;stroke-linecap:butt;stroke-linejoin:miter;stroke:rgb(0%,0%,0%);stroke-opacity:1;stroke-miterlimit:4;" d="M 293.03125 356.75 L 294.125 352.78125 " transform="matrix(0.125,0,0,0.125,0,0)"/>
<path style="fill:none;stroke-width:0.74162;stroke-linecap:butt;stroke-linejoin:miter;stroke:rgb(0%,0%,0%);stroke-opacity:1;stroke-miterlimit:4;" d="M 294.125 352.78125 C 288.8125 348.59375 287.09375 340.71875 285.46875 333.25 C 285.03125 331.28125 284.625 329.375 284.125 327.375 " transform="matrix(0.125,0,0,0.125,0,0)"/>
<path style="fill:none;stroke-width:0.74162;stroke-linecap:butt;stroke-linejoin:miter;stroke:rgb(0%,0%,0%);stroke-opacity:1;stroke-miterlimit:4;" d="M 284.125 327.375 L 283.71875 325.8125 L 282.0625 325.6875 " transform="matrix(0.125,0,0,0.125,0,0)"/>
<path style="fill:none;stroke-width:0.74162;stroke-linecap:butt;stroke-linejoin:miter;stroke:rgb(0%,0%,0%);stroke-opacity:1;stroke-miterlimit:4;" d="M 282.125 325.65625 C 272.96875 324.96875 266.71875 322.1875 258.625 319.34375 C 255.15625 318.15625 252.375 316.375 248 315.03125 C 236 311.25 223.71875 314.875 213.5625 317.4375 C 208.1875 318.78125 203.78125 322.40625 199.03125 322.5625 " transform="matrix(0.125,0,0,0.125,0,0)"/>
<path style="fill:none;stroke-width:0.74162;stroke-linecap:butt;stroke-linejoin:miter;stroke:rgb(0%,0%,0%);stroke-opacity:1;stroke-miterlimit:4;" d="M 198.96875 322.46875 L 198.25 322.46875 " transform="matrix(0.125,0,0,0.125,0,0)"/>
<path style="fill:none;stroke-width:0.74162;stroke-linecap:butt;stroke-linejoin:miter;stroke:rgb(0%,0%,0%);stroke-opacity:1;stroke-miterlimit:4;" d="M 198.21875 322.46875 C 193.46875 322.34375 192.03125 318.78125 186.71875 317.375 C 176.5625 314.8125 165.5625 312.0625 153.65625 315.75 C 149.25 317.09375 144.4375 320 140.9375 321.1875 C 132.84375 324.125 126.46875 325.96875 118.15625 325.59375 " transform="matrix(0.125,0,0,0.125,0,0)"/>
<path style="fill:none;stroke-width:0.74162;stroke-linecap:butt;stroke-linejoin:miter;stroke:rgb(0%,0%,0%);stroke-opacity:1;stroke-miterlimit:4;" d="M 118.125 325.65625 L 116.5625 325.8125 L 116.15625 327.375 " transform="matrix(0.125,0,0,0.125,0,0)"/>
<path style="fill:none;stroke-width:0.74162;stroke-linecap:butt;stroke-linejoin:miter;stroke:rgb(0%,0%,0%);stroke-opacity:1;stroke-miterlimit:4;" d="M 116.125 327.375 C 115.5625 329.4375 115.1875 331.34375 114.6875 333.25 C 113.0625 340.71875 111.28125 348.59375 106.03125 352.78125 " transform="matrix(0.125,0,0,0.125,0,0)"/>
<path style="fill:none;stroke-width:0.74162;stroke-linecap:butt;stroke-linejoin:miter;stroke:rgb(0%,0%,0%);stroke-opacity:1;stroke-miterlimit:4;" d="M 106.125 352.78125 L 107.3125 356.75 " transform="matrix(0.125,0,0,0.125,0,0)"/>
<path style="fill:none;stroke-width:0.74162;stroke-linecap:butt;stroke-linejoin:miter;stroke:rgb(0%,0%,0%);stroke-opacity:1;stroke-miterlimit:4;" d="M 107.3125 356.75 C 119.75 357.8125 130.46875 353.1875 140.03125 349 C 144.65625 347.03125 149.0625 345.1875 153.09375 344.125 C 168 340.34375 175.53125 343.1875 183.96875 346.375 C 189.5 348.4375 194.25 350.4375 200.21875 350.875 " transform="matrix(0.125,0,0,0.125,0,0)"/>
</g>
</svg>
